<svg width="26" height="26" viewBox="0 0 26 26" fill="none" xmlns="http://www.w3.org/2000/svg">
<path opacity="0.5" d="M12.8247 0C11.2549 0 9.74933 0.632141 8.63928 1.75736C7.52924 2.88258 6.90562 4.4087 6.90562 6C6.90562 9.314 12.0542 17.543 12.0542 22H13.5952C13.5952 17.558 18.7438 9.044 18.7438 6C18.7438 4.4087 18.1202 2.88258 17.0102 1.75736C15.9001 0.632141 14.3946 0 12.8247 0V0ZM12.8247 3C13.6096 3 14.3624 3.31607 14.9174 3.87868C15.4725 4.44129 15.7843 5.20435 15.7843 6C15.7843 6.79565 15.4725 7.55871 14.9174 8.12132C14.3624 8.68393 13.6096 9 12.8247 9C12.0398 9 11.287 8.68393 10.732 8.12132C10.177 7.55871 9.86517 6.79565 9.86517 6C9.86517 5.20435 10.177 4.44129 10.732 3.87868C11.287 3.31607 12.0398 3 12.8247 3ZM6.75172 17.281C6.73064 17.2909 6.70991 17.3016 6.68957 17.313C4.86945 17.637 3.32653 18.081 2.1585 18.688C1.57349 18.991 1.06938 19.35 0.678724 19.781C0.287076 20.213 0 20.774 0 21.406C0 22.354 0.619533 23.095 1.35646 23.625C2.09339 24.155 3.02367 24.56 4.16211 24.906C6.43604 25.598 9.47549 26 12.8247 26C16.1739 26 19.2134 25.598 21.4873 24.906C22.6248 24.56 23.5561 24.156 24.293 23.625C25.0299 23.095 25.6494 22.354 25.6494 21.406C25.6494 20.772 25.3633 20.182 24.9707 19.75C24.5781 19.318 24.0789 18.991 23.4909 18.687C22.317 18.08 20.7593 17.636 18.9283 17.312C18.7996 17.2867 18.6671 17.2877 18.5388 17.3149C18.4104 17.3421 18.2887 17.3949 18.1807 17.4704C18.0728 17.5458 17.9807 17.6423 17.91 17.7542C17.8392 17.8662 17.7912 17.9912 17.7687 18.1222C17.7462 18.2532 17.7497 18.3873 17.779 18.5169C17.8082 18.6465 17.8627 18.7688 17.9392 18.8768C18.0156 18.9848 18.1126 19.0763 18.2243 19.1458C18.336 19.2154 18.4603 19.2617 18.5899 19.282C20.2897 19.582 21.7024 20.007 22.5972 20.469C23.045 20.699 23.3597 20.946 23.5225 21.125C23.6853 21.304 23.6764 21.375 23.6764 21.406C23.6764 21.453 23.6133 21.669 23.1526 22C22.6919 22.331 21.9066 22.694 20.9013 23C18.8918 23.611 16.0131 24 12.8247 24C9.6363 24 6.75764 23.611 4.74712 23C3.74284 22.694 2.95758 22.331 2.49786 22C2.03617 21.669 1.97303 21.453 1.97303 21.406C1.97303 21.376 1.96613 21.303 2.12693 21.125C2.28872 20.947 2.60736 20.699 3.05228 20.469C3.94015 20.008 5.33903 19.583 7.02893 19.281C7.16039 19.2648 7.28735 19.2222 7.40238 19.1558C7.51742 19.0893 7.61823 19.0002 7.69891 18.8938C7.7796 18.7873 7.83855 18.6657 7.87231 18.5359C7.90607 18.4061 7.91397 18.2708 7.89555 18.1378C7.87712 18.0049 7.83274 17.877 7.76501 17.7617C7.69727 17.6464 7.60752 17.5459 7.50103 17.4661C7.39453 17.3863 7.27341 17.3289 7.14476 17.2971C7.0161 17.2653 6.88249 17.2598 6.75172 17.281Z" fill="black"/>
</svg>
