<svg width="22" height="23" viewBox="0 0 22 23" fill="none" xmlns="http://www.w3.org/2000/svg">
<path d="M21.9916 21.1618L20.1841 9.86355C20.1123 9.13125 19.7967 8.50357 19.2373 7.98051C18.6778 7.45744 18.0466 7.19591 17.3437 7.19591H15.8159V5.29045C15.8159 4.5731 15.6975 3.88938 15.4608 3.23928C15.2241 2.58918 14.8942 2.02502 14.471 1.54678C14.0478 1.06855 13.5385 0.691196 12.9432 0.414717C12.3478 0.138239 11.7059 0 11.0173 0C10.0992 0 9.27075 0.239116 8.53196 0.717349C7.79317 1.19558 7.21576 1.83821 6.79975 2.64522C6.38373 3.45224 6.17572 4.33398 6.17572 5.29045V7.19591H4.51882C4.28929 7.19591 4.05976 7.22953 3.83024 7.29678C3.60071 7.36404 3.38553 7.4537 3.18469 7.56579C2.98385 7.67788 2.79736 7.81611 2.62522 7.98051C2.45307 8.1449 2.30245 8.32424 2.17334 8.51852C2.04423 8.7128 1.93664 8.92203 1.85056 9.1462C1.76449 9.37037 1.70711 9.59454 1.67842 9.81871L0.0215182 21.1394C-0.0502091 21.7372 0.0573818 22.2005 0.344291 22.5292C0.616854 22.8431 1.00418 23 1.50627 23H20.2916C20.6216 23 20.8942 22.9477 21.1093 22.8431C21.3245 22.7385 21.4967 22.6114 21.6258 22.462C21.9127 22.1183 22.0346 21.6849 21.9916 21.1618ZM7.55288 5.29045C7.55288 4.21443 7.87924 3.30279 8.53196 2.55556C9.18468 1.80832 10.0131 1.4347 11.0173 1.4347C11.5194 1.4347 11.9856 1.53558 12.416 1.73733C12.8464 1.93908 13.2086 2.21556 13.5027 2.56676C13.7967 2.91797 14.0263 3.32895 14.1912 3.79971C14.3562 4.27047 14.4387 4.76738 14.4387 5.29045V7.19591H7.55288V5.29045ZM20.3562 21.5429L1.59235 21.5653C1.4202 21.5653 1.34847 21.4831 1.37716 21.3187L3.03406 10.0205C3.06275 9.84113 3.12014 9.66553 3.20621 9.49366C3.29228 9.3218 3.40346 9.17235 3.53974 9.04532C3.67602 8.91829 3.83024 8.81741 4.00238 8.74269C4.17453 8.66797 4.34667 8.6306 4.51882 8.6306H6.17572V10.2671C6.0753 10.3418 5.98205 10.4202 5.89598 10.5024C5.80991 10.5846 5.73818 10.678 5.6808 10.7827C5.62342 10.8873 5.5768 11.0031 5.54093 11.1301C5.50507 11.2571 5.48714 11.3804 5.48714 11.5C5.48714 11.9035 5.61983 12.2435 5.88522 12.52C6.15061 12.7965 6.47697 12.9347 6.8643 12.9347C7.25163 12.9347 7.57799 12.7965 7.84338 12.52C8.10877 12.2435 8.24146 11.9035 8.24146 11.5C8.24146 10.962 8.01194 10.551 7.55288 10.2671V8.6306H14.4387V10.2671C13.9796 10.551 13.7501 10.962 13.7501 11.5C13.7501 11.9035 13.8828 12.2435 14.1482 12.52C14.4136 12.7965 14.74 12.9347 15.1273 12.9347C15.5146 12.9347 15.841 12.7965 16.1064 12.52C16.3717 12.2435 16.5044 11.9035 16.5044 11.5C16.5044 10.962 16.2749 10.551 15.8159 10.2671V8.6306H17.3437C17.4297 8.6306 17.5158 8.64181 17.6019 8.66423C17.6879 8.68665 17.774 8.71654 17.8601 8.7539C17.9462 8.79126 18.0286 8.83609 18.1075 8.8884C18.1864 8.94071 18.2582 8.99675 18.3227 9.05653C18.3873 9.11631 18.4483 9.18356 18.5056 9.25828C18.563 9.33301 18.6132 9.41521 18.6563 9.50487C18.6993 9.59454 18.7352 9.68421 18.7639 9.77388C18.7925 9.86355 18.8141 9.96069 18.8284 10.0653L20.6144 21.3411C20.6288 21.4009 20.6144 21.4495 20.5714 21.4868C20.5283 21.5242 20.4566 21.5429 20.3562 21.5429Z" fill="#9C9C9C"/>
</svg>
