<svg width="18" height="14" viewBox="0 0 18 14" fill="none" xmlns="http://www.w3.org/2000/svg">
<path opacity="0.5" d="M16.6154 0H0.615385C0.275 0 0 0.284375 0 0.636364V13.3636C0 13.7156 0.275 14 0.615385 14H16.6154C16.9558 14 17.2308 13.7156 17.2308 13.3636V0.636364C17.2308 0.284375 16.9558 0 16.6154 0ZM15.8462 2.20341V12.5682H1.38462V2.20341L0.853846 1.77585L1.60962 0.771591L2.43269 1.43381H14.8L15.6231 0.771591L16.3788 1.77585L15.8462 2.20341V2.20341ZM14.8 1.43182L8.61539 6.40341L2.43077 1.43182L1.60769 0.769602L0.851923 1.77386L1.38269 2.20142L7.95192 7.48324C8.14084 7.63501 8.37327 7.7174 8.6125 7.7174C8.85173 7.7174 9.08416 7.63501 9.27308 7.48324L15.8462 2.20341L16.3769 1.77585L15.6212 0.771591L14.8 1.43182Z" fill="black"/>
</svg>
